<svg width="48" height="48" viewBox="0 0 48 48" fill="none" xmlns="http://www.w3.org/2000/svg">
<path d="M47.4245 32.5487C47.9633 31.2653 46.4236 30.172 45.1323 30.7424C42.551 31.8754 39.762 32.4583 36.943 32.4537C25.891 32.4537 16.9332 23.6754 16.9332 12.8453C16.9291 9.18861 17.968 5.60661 19.9279 2.51953C20.6779 1.33643 19.7774 -0.300902 18.4041 0.0476915C7.81694 2.74929 0 12.1824 0 23.4034C0 36.7318 11.0256 47.5356 24.6286 47.5356C34.928 47.5356 43.7485 41.3428 47.4245 32.5487Z" fill="black"/>
<path d="M33.3031 0.271463C31.9034 -0.663401 30.2344 1.00562 31.1666 2.40528L32.8304 4.90089C33.5053 5.91277 33.8655 7.10184 33.8655 8.31816C33.8655 9.53447 33.5053 10.7235 32.8304 11.7354L31.1666 14.231C30.2344 15.6307 31.9061 17.2997 33.3057 16.3648L35.7987 14.7011C36.8106 14.0262 37.9997 13.666 39.216 13.666C40.4323 13.666 41.6214 14.0262 42.6333 14.7011L45.1289 16.3648C46.5285 17.2997 48.1975 15.6307 47.2627 14.231L45.5989 11.7354C44.924 10.7235 44.5638 9.53447 44.5638 8.31816C44.5638 7.10184 44.924 5.91277 45.5989 4.90089L47.2627 2.40528C48.1975 1.00562 46.5285 -0.663401 45.1262 0.271463L42.6333 1.9352C41.6214 2.61012 40.4323 2.97029 39.216 2.97029C37.9997 2.97029 36.8106 2.61012 35.7987 1.9352L33.3031 0.271463Z" fill="black"/>
</svg>
