<svg width="29" height="29" viewBox="0 0 29 29" fill="none" xmlns="http://www.w3.org/2000/svg">
<path d="M14.4986 0C8.16698 0 2.80198 4.06 0.820312 9.66667H28.177C26.1953 4.06 20.8303 0 14.4986 0Z" fill="#3E4347"/>
<path d="M14.4986 29.0026C20.8303 29.0026 26.1953 24.9909 28.177 19.3359H0.820312C2.80198 24.9909 8.16698 29.0026 14.4986 29.0026Z" fill="#FFE62E"/>
<path d="M0.821667 9.66406C0.29 11.1624 0 12.8057 0 14.4974C0 16.1891 0.29 17.8324 0.821667 19.3307H28.1783C28.71 17.8324 29 16.1891 29 14.4974C29 12.8057 28.71 11.1624 28.1783 9.66406H0.821667Z" fill="#ED4C5C"/>
</svg>
