<svg width="12" height="6" viewBox="0 0 12 6" fill="none" xmlns="http://www.w3.org/2000/svg">
<path d="M11.07 0.156913L6.38503 4.76791C6.28281 4.86904 6.14482 4.92576 6.00103 4.92576C5.85724 4.92576 5.71925 4.86904 5.61703 4.76791L0.931027 0.157913C0.827924 0.0573118 0.689579 0.0010004 0.545527 0.0010004C0.401476 0.0010004 0.263131 0.0573118 0.160027 0.157913C0.109379 0.20729 0.0691266 0.266306 0.0416429 0.331483C0.0141592 0.39666 0 0.466679 0 0.537413C0 0.608148 0.0141592 0.678167 0.0416429 0.743343C0.0691266 0.80852 0.109379 0.867536 0.160027 0.916913L4.84403 5.52691C5.15255 5.82984 5.56765 5.99956 6.00003 5.99956C6.4324 5.99956 6.8475 5.82984 7.15603 5.52691L11.84 0.916913C11.8908 0.86752 11.9312 0.808443 11.9588 0.743174C11.9864 0.677904 12.0006 0.607769 12.0006 0.536913C12.0006 0.466058 11.9864 0.395922 11.9588 0.330653C11.9312 0.265383 11.8908 0.206306 11.84 0.156913C11.7369 0.0563119 11.5986 0 11.4545 0C11.3105 0 11.1721 0.0563119 11.069 0.156913" fill="white"/>
</svg>
