<svg width="48" height="48" viewBox="0 0 48 48" fill="none" xmlns="http://www.w3.org/2000/svg">
<path d="M22.4 6.4V1.6C22.4 1.17565 22.5686 0.768687 22.8686 0.468629C23.1687 0.168571 23.5757 0 24 0C24.4243 0 24.8313 0.168571 25.1314 0.468629C25.4314 0.768687 25.6 1.17565 25.6 1.6V6.4C25.6 6.82435 25.4314 7.23131 25.1314 7.53137C24.8313 7.83143 24.4243 8 24 8C23.5757 8 23.1687 7.83143 22.8686 7.53137C22.5686 7.23131 22.4 6.82435 22.4 6.4ZM24 11.2C21.4684 11.2 18.9937 11.9507 16.8887 13.3572C14.7838 14.7637 13.1431 16.7628 12.1743 19.1017C11.2055 21.4405 10.9521 24.0142 11.4459 26.4972C11.9398 28.9801 13.1589 31.2609 14.949 33.051C16.7391 34.8411 19.0199 36.0602 21.5028 36.5541C23.9858 37.0479 26.5595 36.7945 28.8983 35.8257C31.2372 34.8569 33.2363 33.2162 34.6428 31.1113C36.0493 29.0063 36.8 26.5316 36.8 24C36.7963 20.6064 35.4465 17.3528 33.0469 14.9531C30.6472 12.5535 27.3936 11.2037 24 11.2ZM10.068 12.332C10.3682 12.6322 10.7754 12.8009 11.2 12.8009C11.6246 12.8009 12.0318 12.6322 12.332 12.332C12.6322 12.0318 12.8009 11.6246 12.8009 11.2C12.8009 10.7754 12.6322 10.3682 12.332 10.068L9.132 6.868C8.83177 6.56778 8.42458 6.39911 8 6.39911C7.57542 6.39911 7.16823 6.56778 6.868 6.868C6.56778 7.16823 6.39911 7.57542 6.39911 8C6.39911 8.42458 6.56778 8.83177 6.868 9.132L10.068 12.332ZM10.068 35.668L6.868 38.868C6.56778 39.1682 6.39911 39.5754 6.39911 40C6.39911 40.4246 6.56778 40.8318 6.868 41.132C7.16823 41.4322 7.57542 41.6009 8 41.6009C8.42458 41.6009 8.83177 41.4322 9.132 41.132L12.332 37.932C12.4807 37.7833 12.5986 37.6069 12.679 37.4126C12.7595 37.2184 12.8009 37.0102 12.8009 36.8C12.8009 36.5898 12.7595 36.3816 12.679 36.1874C12.5986 35.9931 12.4807 35.8167 12.332 35.668C12.1833 35.5193 12.0069 35.4014 11.8126 35.321C11.6184 35.2405 11.4102 35.1991 11.2 35.1991C10.9898 35.1991 10.7816 35.2405 10.5874 35.321C10.3931 35.4014 10.2167 35.5193 10.068 35.668ZM36.8 12.8C37.0102 12.8002 37.2183 12.7589 37.4126 12.6786C37.6068 12.5983 37.7833 12.4805 37.932 12.332L41.132 9.132C41.4322 8.83177 41.6009 8.42458 41.6009 8C41.6009 7.57542 41.4322 7.16823 41.132 6.868C40.8318 6.56778 40.4246 6.39911 40 6.39911C39.5754 6.39911 39.1682 6.56778 38.868 6.868L35.668 10.068C35.444 10.2918 35.2914 10.577 35.2296 10.8875C35.1677 11.198 35.1994 11.5199 35.3206 11.8125C35.4418 12.105 35.6471 12.355 35.9104 12.5308C36.1738 12.7065 36.4834 12.8002 36.8 12.8ZM37.932 35.668C37.6318 35.3678 37.2246 35.1991 36.8 35.1991C36.3754 35.1991 35.9682 35.3678 35.668 35.668C35.3678 35.9682 35.1991 36.3754 35.1991 36.8C35.1991 37.2246 35.3678 37.6318 35.668 37.932L38.868 41.132C39.0167 41.2807 39.1931 41.3986 39.3874 41.479C39.5816 41.5595 39.7898 41.6009 40 41.6009C40.2102 41.6009 40.4184 41.5595 40.6126 41.479C40.8069 41.3986 40.9833 41.2807 41.132 41.132C41.2807 40.9833 41.3986 40.8069 41.479 40.6126C41.5595 40.4184 41.6009 40.2102 41.6009 40C41.6009 39.7898 41.5595 39.5816 41.479 39.3874C41.3986 39.1931 41.2807 39.0167 41.132 38.868L37.932 35.668ZM8 24C8 23.5757 7.83143 23.1687 7.53137 22.8686C7.23131 22.5686 6.82435 22.4 6.4 22.4H1.6C1.17565 22.4 0.768687 22.5686 0.468629 22.8686C0.168571 23.1687 0 23.5757 0 24C0 24.4243 0.168571 24.8313 0.468629 25.1314C0.768687 25.4314 1.17565 25.6 1.6 25.6H6.4C6.82435 25.6 7.23131 25.4314 7.53137 25.1314C7.83143 24.8313 8 24.4243 8 24ZM24 40C23.5757 40 23.1687 40.1686 22.8686 40.4686C22.5686 40.7687 22.4 41.1757 22.4 41.6V46.4C22.4 46.8243 22.5686 47.2313 22.8686 47.5314C23.1687 47.8314 23.5757 48 24 48C24.4243 48 24.8313 47.8314 25.1314 47.5314C25.4314 47.2313 25.6 46.8243 25.6 46.4V41.6C25.6 41.1757 25.4314 40.7687 25.1314 40.4686C24.8313 40.1686 24.4243 40 24 40ZM46.4 22.4H41.6C41.1757 22.4 40.7687 22.5686 40.4686 22.8686C40.1686 23.1687 40 23.5757 40 24C40 24.4243 40.1686 24.8313 40.4686 25.1314C40.7687 25.4314 41.1757 25.6 41.6 25.6H46.4C46.8243 25.6 47.2313 25.4314 47.5314 25.1314C47.8314 24.8313 48 24.4243 48 24C48 23.5757 47.8314 23.1687 47.5314 22.8686C47.2313 22.5686 46.8243 22.4 46.4 22.4Z" fill="white"/>
</svg>
